<svg width="42" height="35" viewBox="0 0 42 35" fill="none" xmlns="http://www.w3.org/2000/svg">
<path d="M8.29293 8.37842V2.37734C8.29293 1.86907 7.88089 1.45703 7.37263 1.45703H4.30605C3.79779 1.45703 3.38574 1.86907 3.38574 2.37734V8.37842" fill="#E5E9EA"/>
<path d="M5.61429 8.37842V1.45703H4.30605C3.79779 1.45703 3.38574 1.86907 3.38574 2.37734V8.37842" fill="#D1D1D1"/>
<path d="M42 9.47223V31.9251C42 33.4645 40.752 34.7125 39.2126 34.7125H2.78742C1.24802 34.7125 0 33.4645 0 31.9251V9.47223C0 7.93283 1.24802 6.68481 2.78742 6.68481H8.2991C9.48626 6.68481 10.544 5.93307 10.9331 4.81113L11.9506 1.87458C12.3397 0.752555 13.3965 0 14.5846 0H30.8443C32.0315 0 33.0883 0.752555 33.4774 1.87458L34.4957 4.81113C34.8849 5.93316 35.9417 6.68481 37.1288 6.68481H39.2125C40.752 6.68481 42 7.93283 42 9.47223Z" fill="#FCB65F"/>
<path d="M4.97314 34.7123H2.78742C1.24802 34.7123 0 33.4642 0 31.9248V9.47199C0 7.93259 1.24802 6.68457 2.78742 6.68457H4.79998V6.68974C3.34113 6.77973 2.18572 7.99092 2.18572 9.47199V31.9248C2.18572 33.4643 3.43375 34.7123 4.97314 34.7123Z" fill="#E29A4B"/>
<path d="M16.7703 0C15.5823 0 14.5254 0.752555 14.1363 1.87458L13.1188 4.81113C12.7297 5.93316 11.672 6.68481 10.4848 6.68481H8.6145V6.66684C9.67049 6.54683 10.5791 5.83283 10.933 4.81113L11.9505 1.87458C12.3396 0.752555 13.3964 0 14.5845 0C14.5847 0 16.7703 0 16.7703 0Z" fill="#E29A4B"/>
<path d="M42 14.2705V31.9251C42 33.4645 40.752 34.7125 39.2126 34.7125H2.78742C1.24802 34.7125 0 33.4645 0 31.9251V14.2705H42Z" fill="#53BCE9"/>
<path d="M4.97314 34.7124H2.78742C1.24802 34.7124 0 33.4644 0 31.925V14.2705H2.18572V31.9251C2.18572 33.4645 3.43375 34.7124 4.97314 34.7124Z" fill="#36A6CE"/>
<path d="M21.0001 32.0979C27.414 32.0979 32.6135 26.8984 32.6135 20.4845C32.6135 14.0706 27.414 8.87109 21.0001 8.87109C14.5862 8.87109 9.38672 14.0706 9.38672 20.4845C9.38672 26.8984 14.5862 32.0979 21.0001 32.0979Z" fill="#E5E9EA"/>
<path d="M29.2112 20.4849C29.2112 22.903 28.1664 25.0766 26.5026 26.5801C25.0464 27.8958 23.1178 28.6972 20.9998 28.6972C18.8827 28.6972 16.9532 27.8957 15.497 26.58C13.8333 25.0775 12.7876 22.9029 12.7876 20.4848C12.7876 18.0668 13.8333 15.8922 15.497 14.3906C16.9533 13.074 18.8827 12.2734 20.9998 12.2734C23.1178 12.2734 25.0464 13.0749 26.5026 14.3906C28.1664 15.8932 29.2112 18.0669 29.2112 20.4849Z" fill="#566368"/>
<path d="M26.8058 14.6781C28.5156 16.3879 29.3139 18.6638 29.2005 20.9033C26.961 21.0166 24.6851 20.2184 22.9753 18.5086C21.2655 16.7989 20.4673 14.523 20.5812 12.2841C22.8201 12.1702 25.0961 12.9684 26.8058 14.6781Z" fill="#6F7B7F"/>
<path d="M19.0237 22.4604C20.7335 24.1702 21.5317 26.4461 21.4184 28.6856C19.1794 28.7996 16.9023 28.0014 15.1926 26.2915C13.4828 24.5818 12.6846 22.3047 12.7991 20.0664C15.0381 19.9523 17.3139 20.7506 19.0237 22.4604Z" fill="#6F7B7F"/>
<path d="M20.9996 29.3396C16.1172 29.3396 12.145 25.3674 12.145 20.485C12.145 15.6026 16.1172 11.6304 20.9996 11.6304C25.8821 11.6304 29.8543 15.6025 29.8543 20.485C29.8543 25.3675 25.8821 29.3396 20.9996 29.3396ZM20.9996 12.916C16.8261 12.916 13.4307 16.3115 13.4307 20.485C13.4307 24.6585 16.8261 28.0539 20.9996 28.0539C25.1731 28.0539 28.5686 24.6585 28.5686 20.485C28.5686 16.3115 25.1731 12.916 20.9996 12.916Z" fill="#435054"/>
<path d="M20.9996 17.1885C19.1819 17.1885 17.7031 18.6673 17.7031 20.485C17.7031 22.3027 19.1819 23.7814 20.9996 23.7814C22.8172 23.7814 24.296 22.3026 24.296 20.485C24.296 18.6673 22.8172 17.1885 20.9996 17.1885Z" fill="#435054"/>
<path d="M25.1718 6.04196H30.2235C30.8877 6.04196 31.4261 5.50359 31.4261 4.83938V3.51606C31.4261 2.85193 30.8878 2.31348 30.2235 2.31348H25.1718C24.5077 2.31348 23.9692 2.85185 23.9692 3.51606V4.83938C23.9692 5.50351 24.5077 6.04196 25.1718 6.04196Z" fill="#E5E9EA"/>
<path d="M30.2236 6.68498H25.1719C24.1543 6.68498 23.3264 5.85712 23.3264 4.83952V3.51636C23.3264 2.49876 24.1543 1.6709 25.1719 1.6709H30.2236C31.2412 1.6709 32.0691 2.49876 32.0691 3.51636V4.8396C32.069 5.8572 31.2411 6.68498 30.2236 6.68498ZM25.1719 2.95657C24.8632 2.95657 24.6122 3.20767 24.6122 3.51627V4.83952C24.6122 5.1482 24.8632 5.39922 25.1719 5.39922H30.2236C30.5323 5.39922 30.7833 5.14812 30.7833 4.83952V3.51636C30.7833 3.20767 30.5322 2.95666 30.2236 2.95666C30.2236 2.95657 25.1719 2.95657 25.1719 2.95657Z" fill="#E29A4B"/>
<path d="M7.98427 32.3328C9.26811 32.3328 10.3089 31.292 10.3089 30.0082C10.3089 28.7244 9.26811 27.6836 7.98427 27.6836C6.70043 27.6836 5.65967 28.7244 5.65967 30.0082C5.65967 31.292 6.70043 32.3328 7.98427 32.3328Z" fill="#566368"/>
</svg>
