<svg width="30" height="41" viewBox="0 0 30 41" fill="none" xmlns="http://www.w3.org/2000/svg">
<path d="M14.8491 4.94971L25.9859 40.9999H28.8137C29.302 40.9999 29.698 40.6039 29.698 40.1153V19.7986C29.698 11.5978 23.0499 4.94971 14.8491 4.94971Z" fill="#FFC38F"/>
<path d="M14.8492 4.94971C6.64805 4.94971 0 11.5978 0 19.7986V40.1153C0 40.6039 0.396011 40.9999 0.884613 40.9999H25.986V19.7986C25.986 11.5978 20.9999 4.94971 14.8492 4.94971Z" fill="#FFEAB0"/>
<path d="M14.8491 0V13.6117H25.9859V8.66189C25.9859 3.87816 20.9998 0 14.8491 0Z" fill="#F9A3BF"/>
<path d="M14.8491 4.94971V32.9567H22.5516C24.6681 30.9294 25.9859 28.0754 25.9859 24.9132V13.6116C25.9859 8.82755 20.9998 4.94971 14.8491 4.94971Z" fill="#FA71A3"/>
<path d="M14.8491 36.0503C17.8377 36.0503 20.5512 34.8729 22.5516 32.9569C20.5512 31.0407 17.8377 29.8633 14.8491 29.8633V36.0503Z" fill="#F9D4DB"/>
<path d="M14.8492 0C8.69852 0 3.7124 3.87816 3.7124 8.66189V12.3743L3.81438 12.4387L23.4958 8.15295C23.2324 3.60602 19.4621 0 14.8492 0Z" fill="#F9D4DB"/>
<path d="M3.7124 13.6116V24.9132C3.7124 28.0754 5.03025 30.9294 7.14669 32.9567L21.4916 32.0605C22.7519 30.1261 23.5111 27.634 23.5111 24.9132V8.66177C23.5111 8.49097 23.5061 8.32143 23.4961 8.15314C21.4544 6.19874 18.3395 4.94971 14.8492 4.94971C8.69852 4.94971 3.7124 8.82755 3.7124 13.6116Z" fill="#F9A3BF"/>
<path d="M7.14673 32.9569C9.1468 34.8729 11.8604 36.0503 14.8492 36.0503C17.5172 36.0503 19.9029 34.4994 21.4917 32.0607C19.637 30.6803 17.3385 29.8633 14.8492 29.8633C11.8604 29.8633 9.1468 31.0407 7.14673 32.9569Z" fill="white"/>
</svg>
