<svg width="106" height="95" viewBox="0 0 106 95" fill="none" xmlns="http://www.w3.org/2000/svg">
<path d="M40.8972 94.9999C63.4841 94.9999 81.7944 76.6897 81.7944 54.1028C81.7944 31.5159 63.4841 13.2056 40.8972 13.2056C18.3103 13.2056 0 31.5159 0 54.1028C0 76.6897 18.3103 94.9999 40.8972 94.9999Z" fill="#FCD6CE"/>
<path d="M41.3596 85.7136L40.8409 84.8297C32.9172 71.3294 11.8612 42.6796 11.6485 42.3918L11.3447 41.9792L18.5184 34.8896L41.2264 50.7459C55.524 32.1928 68.8626 19.4496 77.5633 12.008C87.0812 3.86776 93.2767 0.120245 93.3393 0.0843342L93.4802 0H105.649L104.486 1.03517C74.5922 27.6619 42.19 84.2544 41.8673 84.823L41.3596 85.7136Z" fill="#DB9080"/>
</svg>
