<svg width="38" height="42" viewBox="0 0 38 42" fill="none" xmlns="http://www.w3.org/2000/svg">
<path d="M15.831 1.38408C15.831 1.38408 7.82153 1.76667 6.86862 11.3002C6.86862 11.3002 6.77398 13.8732 5.05789 14.9212C5.05789 14.9212 2.38756 16.6371 3.72328 21.2126C3.72328 21.2126 4.29583 24.0736 1.8159 25.6945C1.8159 25.6945 -0.280992 27.5062 1.05518 30.081C1.05518 30.081 1.91344 30.9399 0.387092 32.4645C0.387092 32.4645 -0.947963 34.848 1.34067 38.0895C1.34067 38.0895 1.05518 35.7085 1.62639 35.1355C1.62639 35.1355 3.62797 37.5165 3.15274 39.1397C3.15274 39.1397 6.39473 37.3275 11.0651 36.9473C11.0651 36.9473 16.6903 35.8957 16.1191 28.7481C16.1191 28.7481 10.8753 24.6483 11.0651 21.0242L11.7327 15.6862C11.7327 15.6862 13.9263 13.0192 14.1164 11.969C14.1164 11.969 15.6419 14.2563 13.7343 15.9724C13.7343 15.9724 17.072 15.2092 15.9281 10.4417C15.9281 10.4417 16.6895 8.72588 17.1674 8.82231C17.1674 8.82231 18.7879 13.0161 23.5567 13.3029C23.5567 13.3029 24.317 18.0681 27.2732 18.5465C27.2732 18.5465 27.3686 25.6954 23.1728 28.6526C23.1728 28.6526 22.2199 37.0429 30.6099 37.4243C30.6099 37.4243 29.0842 41.2371 32.4211 41.9998C32.4211 41.9998 31.8494 38.2821 34.6142 38.2821L35.8535 39.8056C35.8535 39.8056 38.8097 36.0888 37.4742 33.5163C37.4742 33.5163 34.7097 32.1808 35.7588 28.6542C35.7588 28.6542 37.4742 27.3211 35.0905 25.603C35.0905 25.603 34.6139 24.9349 35.4758 24.1735C35.4758 24.1735 38.43 21.6936 33.4722 16.2592L33.2838 11.3013C33.2838 11.3013 31.9489 3.86557 22.8924 0.336525C22.8891 0.335411 16.4035 -0.904998 15.831 1.38408Z" fill="#FDBE61"/>
</svg>
