<svg width="37" height="40" viewBox="0 0 37 40" fill="none" xmlns="http://www.w3.org/2000/svg">
<path d="M36.3024 39.7984H32.8331C32.6844 39.7984 32.5566 39.6933 32.528 39.5474C32.2798 38.2796 31.1775 32.4867 30.9699 28.5581C30.9115 27.4566 31.3848 25.1118 31.2041 24.0238C30.8073 21.6453 30.5371 17.7895 29.4123 15.2135C29.3467 15.0631 29.1243 15.1041 29.1145 15.2679C28.9494 18.0583 27.7425 20.7531 26.9685 22.8189C26.6048 23.7889 26.1291 26.7431 26.1507 27.7781C26.1998 30.1726 27.3086 34.9427 27.7474 39.4584C27.7651 39.6408 27.6208 39.7984 27.4375 39.7984H9.56227C9.37899 39.7984 9.23464 39.6407 9.25236 39.4584C9.69115 34.9427 10.8 30.1726 10.8491 27.7781C10.8707 26.7431 10.395 23.7889 10.0312 22.8189C9.25726 20.753 8.05048 18.0583 7.88522 15.2679C7.87551 15.1042 7.65312 15.0631 7.58744 15.2135C6.46267 17.7895 6.19247 21.6453 5.79565 24.0238C5.61501 25.1117 6.08823 27.4566 6.02986 28.5581C5.82224 32.4868 4.72001 38.2796 4.47181 39.5474C4.44321 39.6934 4.31542 39.7984 4.16664 39.7984H0.697499C0.534186 39.7984 0.398778 39.6724 0.387351 39.5094C0.287156 38.0839 -0.133836 31.6873 0.0427691 27.1888C0.214633 22.8357 1.22599 20.2623 1.25553 19.4559C1.38666 15.9382 1.90466 12.5038 1.84551 11.0751C1.76716 9.15355 1.80237 6.97622 3.2062 5.66544C5.45434 3.56506 11.8772 3.70933 13.1356 3.16179C14.2985 2.65654 15.3146 1.55144 15.3384 0.308515C15.3416 0.137817 15.478 0 15.6488 0H21.3511C21.5219 0 21.6583 0.137817 21.6615 0.308515C21.6853 1.55144 22.7014 2.65654 23.8643 3.16179C25.1227 3.70933 31.5456 3.56506 33.7937 5.66544C35.1976 6.97622 35.2328 9.15355 35.1544 11.0751C35.0953 12.5038 35.6133 15.9381 35.7444 19.4559C35.774 20.2623 36.7853 22.8357 36.9572 27.1888C37.1338 31.6873 36.7128 38.0839 36.6126 39.5094C36.6012 39.6724 36.4657 39.7984 36.3024 39.7984Z" fill="#FDBA91"/>
<path d="M36.3025 39.7984H32.8336C32.6849 39.7984 32.557 39.6933 32.5284 39.5474C32.2802 38.2797 31.1778 32.4869 30.9705 28.5584C30.9122 27.4562 31.3848 25.1118 31.2044 24.0236C30.8079 21.645 30.5374 17.7896 29.4125 15.2135C29.3472 15.0627 29.1249 15.1039 29.1148 15.268C28.95 18.0585 27.7427 20.7527 26.9692 22.8188C26.6053 23.7889 26.1296 26.7434 26.1514 27.778C26.1999 30.1726 27.3092 34.943 27.7475 39.4584C27.7652 39.6408 27.6209 39.7984 27.4376 39.7984H9.56275C9.37946 39.7984 9.23511 39.6408 9.25284 39.4584C9.69109 34.9429 10.8005 30.1726 10.849 27.778C10.8707 26.7434 10.3949 23.7889 10.0312 22.8188C9.25766 20.7527 8.05034 18.0585 7.88555 15.268C7.87544 15.1039 7.65313 15.0627 7.58783 15.2135C6.46291 17.7896 6.1924 21.645 5.7959 24.0236C5.61556 25.1118 6.08817 27.4562 6.02987 28.5584C5.82248 32.4869 4.7201 38.2796 4.4719 39.5474C4.44322 39.6933 4.31543 39.7984 4.16665 39.7984H0.697743C0.53443 39.7984 0.399022 39.6724 0.387596 39.5094C0.2874 38.0839 -0.133592 31.6873 0.0430132 27.1888C0.214799 22.8359 1.22624 20.2622 1.25577 19.4561C1.38714 15.938 1.90491 12.5038 1.84583 11.0751C1.76732 9.15362 1.8023 6.97637 3.20628 5.66505C5.4545 3.56475 11.8774 3.70933 13.1361 3.1621C14.2984 2.65639 15.3148 1.55128 15.3384 0.308593C15.3417 0.137817 15.478 0 15.6489 0H21.3515C21.5223 0 21.6587 0.137817 21.6619 0.308593C21.6855 1.55128 22.7019 2.65639 23.8643 3.1621C25.1229 3.70933 31.5458 3.56475 33.794 5.66505C35.198 6.97637 35.233 9.15362 35.1545 11.0751C35.0954 12.5038 35.6132 15.938 35.7446 19.4561C35.7741 20.2622 36.7855 22.8359 36.9573 27.1888C37.1339 31.6873 36.7129 38.0839 36.6127 39.5094C36.6012 39.6724 36.4657 39.7984 36.3025 39.7984Z" fill="#FDBA91"/>
<path d="M6.02984 28.5579C6.08821 27.4563 5.61491 25.1114 5.79563 24.0236C6.18476 21.6912 6.45207 17.9385 7.52282 15.3648C7.64222 15.0777 7.37163 14.7821 7.07439 14.8733C5.92793 15.2249 5.73065 15.4559 4.71369 17.9814C3.75877 20.94 3.82072 21.4598 3.39304 24.0236C3.21239 25.1115 3.68562 27.4564 3.62732 28.5579C3.39296 32.9912 2.01953 39.7982 2.01953 39.7982H4.1667C4.3154 39.7982 4.44327 39.6931 4.47187 39.5472C4.71999 38.2794 5.82222 32.4865 6.02984 28.5579Z" fill="#FC997D"/>
<path d="M21.7193 2.59918C21.9842 2.59918 22.4336 2.61433 23.0018 2.65366C22.2403 2.07224 21.6793 1.2287 21.6614 0.30937C21.658 0.138284 21.5219 0 21.3508 0H19.2735C19.1167 1.36605 19.8749 2.59918 21.7193 2.59918Z" fill="#FC997D"/>
<path d="M26.1507 27.7781C26.1291 26.7431 26.6048 23.7889 26.9685 22.8189C27.7339 20.7758 28.9227 18.1176 29.1086 15.3602C29.1354 14.9625 28.6403 14.7562 28.3826 15.0603C27.1551 16.5094 25.2339 21.036 24.5658 22.8189C24.2021 23.7889 23.7264 26.7431 23.748 27.7781C23.7984 30.2328 24.9624 35.1839 25.3765 39.7984H27.4374C27.6207 39.7984 27.765 39.6408 27.7473 39.4584C27.3087 34.9426 26.1998 30.1727 26.1507 27.7781Z" fill="#FC997D"/>
<path d="M36.9572 27.1886C36.7853 22.8355 35.774 20.2621 35.7444 19.4556C35.6133 15.9378 35.0953 12.5035 35.1545 11.0749C35.2328 9.15329 35.1976 6.97596 33.7938 5.66518C32.9597 4.88585 31.5507 4.41573 30.0442 4.10449C30.6797 4.38479 31.2337 4.7146 31.6489 5.10256C33.0527 6.41334 32.8302 9.15329 32.7519 11.0749C32.6927 12.5035 33.2108 15.9378 33.3419 19.4556C33.3715 20.2621 34.3828 22.8355 34.5546 27.1886C34.7545 32.2784 34.1893 39.7981 34.1893 39.7981H36.3025C36.4658 39.7981 36.6012 39.6721 36.6126 39.5092C36.7128 38.0836 37.1338 31.687 36.9572 27.1886Z" fill="#FC997D"/>
<path d="M16.2239 8.63404C15.911 8.55981 15.5966 8.75297 15.5218 9.06591C15.5124 9.10532 14.5475 13.0372 11.7193 15.8058C11.4892 16.0311 11.4854 16.4002 11.7106 16.6302C11.9359 16.8603 12.305 16.8642 12.5351 16.639C15.6106 13.6283 16.615 9.50929 16.6563 9.33549C16.7306 9.02238 16.537 8.70858 16.2239 8.63404Z" fill="#EB866C"/>
<path d="M25.8754 15.8056C23.056 13.0454 22.0883 9.12901 22.0731 9.06613C21.9988 8.75287 21.6846 8.5594 21.3712 8.63347C21.0579 8.70786 20.8642 9.02205 20.9385 9.33531C20.9798 9.50912 21.9842 13.6281 25.0596 16.6388C25.2896 16.864 25.6587 16.8602 25.8841 16.6301C26.1094 16.3999 26.1055 16.0308 25.8754 15.8056Z" fill="#EB866C"/>
<path d="M19.0831 20.7529V39.7986H17.917V20.7529C17.917 20.4311 18.1782 20.1699 18.5001 20.1699C18.8219 20.1699 19.0831 20.4311 19.0831 20.7529Z" fill="#EB866C"/>
</svg>
