<svg width="41" height="41" viewBox="0 0 41 41" fill="none" xmlns="http://www.w3.org/2000/svg">
<path d="M30.5762 8.33874L30.1444 6.61183C30.0693 6.31113 29.8957 6.04419 29.6514 5.85344C29.4071 5.66269 29.1061 5.55908 28.7961 5.55908H26.7969C26.487 5.55908 26.1859 5.66269 25.9416 5.85344C25.6973 6.04419 25.5237 6.31113 25.4486 6.61183L25.0168 8.33874V10.4235H30.5762V8.33874Z" fill="#FFDE7E"/>
<path d="M38.9153 33.356H36.1357V30.5763H40.3052V31.9661C40.3052 32.3347 40.1587 32.6882 39.8981 32.9489C39.6375 33.2095 39.284 33.356 38.9153 33.356Z" fill="#EFEFEF"/>
<path d="M15.2881 30.5762H19.4576V33.3558H16.6779C16.3093 33.3558 15.9558 33.2094 15.6952 32.9488C15.4345 32.6881 15.2881 32.3346 15.2881 31.966V30.5762Z" fill="#EFEFEF"/>
<path d="M27.7966 10.4239L21.5423 9.729L16.7178 12.4093C16.2845 12.65 15.9234 13.0023 15.672 13.4295C15.4207 13.8567 15.2881 14.3434 15.2881 14.8391V30.5765H19.4576V35.4409C19.4576 35.8095 19.604 36.163 19.8646 36.4236C20.1253 36.6843 20.4788 36.8307 20.8474 36.8307H27.7966V10.4239Z" fill="#FFAAAA"/>
<path d="M27.7966 36.8307H34.7458C35.1144 36.8307 35.4679 36.6843 35.7285 36.4236C35.9892 36.163 36.1356 35.8095 36.1356 35.4409V30.5765H40.3051V14.8391C40.3051 14.3434 40.1725 13.8567 39.9212 13.4295C39.6698 13.0023 39.3087 12.65 38.8754 12.4093L34.0509 9.729L27.7966 10.4239V36.8307Z" fill="#F2A2A2"/>
<path d="M34.051 9.729L27.7967 22.2375L21.5425 9.729L27.7967 10.4239L34.051 9.729Z" fill="#E2E2E2"/>
<path d="M31.0181 8.27591L27.7966 10.4235L29.4425 12.618C29.499 12.6934 29.5703 12.7566 29.6521 12.8035C29.7338 12.8505 29.8242 12.8804 29.9178 12.8913C30.0114 12.9022 30.1063 12.894 30.1966 12.8671C30.287 12.8403 30.3709 12.7953 30.4433 12.7349L34.0509 9.72863L32.7718 8.44956C32.5446 8.22237 32.2457 8.08091 31.926 8.04925C31.6063 8.01759 31.2854 8.09768 31.0181 8.27591Z" fill="#EFEFEF"/>
<path d="M24.5753 8.27591L27.7967 10.4235L26.1509 12.618C26.0943 12.6934 26.023 12.7566 25.9413 12.8035C25.8596 12.8505 25.7692 12.8804 25.6755 12.8913C25.5819 12.9022 25.4871 12.894 25.3967 12.8671C25.3064 12.8403 25.2224 12.7953 25.15 12.7349L21.5425 9.72863L22.8216 8.44956C23.0487 8.22237 23.3476 8.08091 23.6674 8.04925C23.9871 8.01759 24.3079 8.09768 24.5753 8.27591Z" fill="#EFEFEF"/>
<path d="M25.0169 26.4069C25.4007 26.4069 25.7119 26.0958 25.7119 25.712C25.7119 25.3282 25.4007 25.0171 25.0169 25.0171C24.6331 25.0171 24.322 25.3282 24.322 25.712C24.322 26.0958 24.6331 26.4069 25.0169 26.4069Z" fill="#D99191"/>
<path d="M25.0169 29.8815C25.4007 29.8815 25.7119 29.5704 25.7119 29.1866C25.7119 28.8028 25.4007 28.4917 25.0169 28.4917C24.6331 28.4917 24.322 28.8028 24.322 29.1866C24.322 29.5704 24.6331 29.8815 25.0169 29.8815Z" fill="#D99191"/>
<path d="M25.0169 33.3561C25.4007 33.3561 25.7119 33.045 25.7119 32.6612C25.7119 32.2774 25.4007 31.9663 25.0169 31.9663C24.6331 31.9663 24.322 32.2774 24.322 32.6612C24.322 33.045 24.6331 33.3561 25.0169 33.3561Z" fill="#D99191"/>
<path d="M26.4067 36.8306H29.1864V41.0001H26.4067V36.8306Z" fill="#D5D5D5"/>
<path d="M27.1018 2.08496H28.4916V5.55954H27.1018V2.08496Z" fill="#E6C871"/>
<path d="M27.7966 2.77966C28.5642 2.77966 29.1864 2.15741 29.1864 1.38983C29.1864 0.622248 28.5642 0 27.7966 0C27.029 0 26.4067 0.622248 26.4067 1.38983C26.4067 2.15741 27.029 2.77966 27.7966 2.77966Z" fill="#FFDE7E"/>
<path d="M12.5085 28.4917H1.3899C1.0213 28.4917 0.667787 28.3453 0.407143 28.0846C0.146499 27.824 7.05719e-05 27.4705 7.05719e-05 27.1019V24.3222C7.05719e-05 23.9536 0.146499 23.6001 0.407143 23.3394C0.667787 23.0788 1.0213 22.9324 1.3899 22.9324H12.5085V28.4917Z" fill="#E2E2E2"/>
<path d="M14.5933 30.5762H15.9831V34.7457H14.5933V30.5762Z" fill="#D5D5D5"/>
<path d="M1.38981 40.3052H17.3729C18.1404 40.3052 18.7627 39.6829 18.7627 38.9153V37.5255C18.7627 36.7579 18.1404 36.1357 17.3729 36.1357H1.38981C0.622231 36.1357 -1.71661e-05 36.7579 -1.71661e-05 37.5255V38.9153C-1.71661e-05 39.6829 0.622231 40.3052 1.38981 40.3052Z" fill="#EFEFEF"/>
<path d="M15.2882 31.271C14.551 31.271 13.844 30.9781 13.3227 30.4569C12.8014 29.9356 12.5085 29.2285 12.5085 28.4913V22.2371C12.5085 21.8685 12.655 21.515 12.9156 21.2543C13.1763 20.9937 13.5298 20.8473 13.8984 20.8473H16.678C17.0466 20.8473 17.4002 20.9937 17.6608 21.2543C17.9214 21.515 18.0679 21.8685 18.0679 22.2371V28.4913C18.0679 29.2285 17.775 29.9356 17.2537 30.4569C16.7324 30.9781 16.0254 31.271 15.2882 31.271Z" fill="#EFEFEF"/>
<path d="M8.33887 36.1357H2.08463V28.4917H8.33887V36.1357Z" fill="#D5D5D5"/>
<path d="M6.25415 19.4575H7.64398V22.9321H6.25415V19.4575Z" fill="#FFAAAA"/>
<path d="M2.08472 19.4575H3.47455V22.9321H2.08472V19.4575Z" fill="#FFAAAA"/>
</svg>
