<svg width="40" height="40" viewBox="0 0 40 40" fill="none" xmlns="http://www.w3.org/2000/svg">
<path d="M18.8577 0H20.2046V17.5108H18.8577V0Z" fill="#B2B2B2"/>
<path d="M6.73486 0H8.08185V18.1843H6.73486V0Z" fill="#7FCE74"/>
<path d="M8.75549 8.08196V4.04102H7.40851H6.06152V8.08196" fill="#757575"/>
<path d="M7.40841 21.5517C11.5 21.5517 14.8168 18.2348 14.8168 14.1433C14.8168 10.0517 11.5 6.73486 7.40841 6.73486C3.31686 6.73486 0 10.0517 0 14.1433C0 18.2348 3.31686 21.5517 7.40841 21.5517Z" fill="#F2F2F2"/>
<path d="M20.8783 20.2047V15.4902H19.5313H18.1843V20.2047" fill="#9A9A9B"/>
<path d="M11.4023 22.9592L27.6133 22.8986C26.6684 21.6398 25.4423 20.6191 24.033 19.9181C22.6237 19.217 21.07 18.855 19.496 18.8609C17.9219 18.8668 16.371 19.2404 14.967 19.952C13.5629 20.6635 12.3446 21.6933 11.4091 22.9592H11.4023Z" fill="#E54C4C"/>
<path d="M29.4316 26.9395C29.701 28.273 29.701 29.6469 29.4316 30.9804H9.631C9.36161 29.6469 9.36161 28.273 9.631 26.9395H29.4316Z" fill="#90DB86"/>
<path d="M11.4495 35.0215H27.6133C26.6723 36.2762 25.452 37.2945 24.0493 37.9959C22.6465 38.6973 21.0997 39.0624 19.5314 39.0624C17.963 39.0624 16.4162 38.6973 15.0134 37.9959C13.6107 37.2945 12.3905 36.2762 11.4495 35.0215Z" fill="#A87DDB"/>
<path d="M11.4089 22.9595C10.5323 24.1403 9.92533 25.499 9.63086 26.9399H29.4315C29.1343 25.4741 28.513 24.0935 27.6131 22.8989L11.4021 22.9595" fill="#F7C963"/>
<path d="M29.4315 30.9805C29.1343 32.4462 28.513 33.8269 27.6131 35.0214H11.4493C10.5494 33.8269 9.9281 32.4462 9.63086 30.9805H29.4315Z" fill="#3AA39E"/>
<path d="M11.2943 20.4538C11.0534 19.609 10.5438 18.8657 9.84254 18.3365C9.14133 17.8073 8.28676 17.521 7.40826 17.521C6.52976 17.521 5.67519 17.8073 4.97398 18.3365C4.27277 18.8657 3.76312 19.609 3.52222 20.4538C4.69059 21.1737 6.03594 21.5548 7.40826 21.5548C8.78058 21.5548 10.1259 21.1737 11.2943 20.4538Z" fill="#5981C1"/>
<path d="M1.4144 18.494C0.775742 17.622 0.33868 16.619 0.134766 15.5576C1.01939 14.4851 2.13023 13.6215 3.38772 13.0287C4.64521 12.4358 6.01824 12.1284 7.40847 12.1284C8.7987 12.1284 10.1717 12.4358 11.4292 13.0287C12.6867 13.6215 13.7976 14.4851 14.6822 15.5576C14.4783 16.619 14.0412 17.622 13.4025 18.494C12.8374 17.3908 11.9787 16.465 10.9211 15.8185C9.86351 15.172 8.64801 14.8299 7.40847 14.8299C6.16893 14.8299 4.95344 15.172 3.89584 15.8185C2.83825 16.465 1.97958 17.3908 1.4144 18.494Z" fill="#5981C1"/>
<path d="M14.3859 11.6446C12.3472 10.2034 9.91187 9.42956 7.41522 9.42956C4.91856 9.42956 2.48328 10.2034 0.44458 11.6446C0.960991 10.2098 1.90756 8.96938 3.15509 8.09252C4.40262 7.21566 5.89035 6.74512 7.41522 6.74512C8.94008 6.74512 10.4278 7.21566 11.6753 8.09252C12.9229 8.96938 13.8694 10.2098 14.3859 11.6446Z" fill="#5981C1"/>
<path d="M30.9807 0H32.3277V18.1843H30.9807V0Z" fill="#7FCE74"/>
<path d="M33.0011 8.08196V4.04102H31.6541H30.3071V8.08196" fill="#757575"/>
<path d="M31.654 21.5517C35.7456 21.5517 39.0624 18.2348 39.0624 14.1433C39.0624 10.0517 35.7456 6.73486 31.654 6.73486C27.5625 6.73486 24.2456 10.0517 24.2456 14.1433C24.2456 18.2348 27.5625 21.5517 31.654 21.5517Z" fill="#F2F2F2"/>
<path d="M35.5402 20.4538C35.2993 19.609 34.7896 18.8657 34.0884 18.3365C33.3872 17.8073 32.5326 17.521 31.6541 17.521C30.7756 17.521 29.921 17.8073 29.2198 18.3365C28.5186 18.8657 28.009 19.609 27.7681 20.4538C28.9364 21.1737 30.2818 21.5548 31.6541 21.5548C33.0264 21.5548 34.3718 21.1737 35.5402 20.4538Z" fill="#5981C1"/>
<path d="M25.66 18.494C25.0213 17.622 24.5843 16.619 24.3804 15.5576C25.265 14.4851 26.3758 13.6215 27.6333 13.0287C28.8908 12.4358 30.2638 12.1284 31.6541 12.1284C33.0443 12.1284 34.4173 12.4358 35.6748 13.0287C36.9323 13.6215 38.0432 14.4851 38.9278 15.5576C38.7239 16.619 38.2868 17.622 37.6482 18.494C37.083 17.3908 36.2243 16.465 35.1667 15.8185C34.1091 15.172 32.8936 14.8299 31.6541 14.8299C30.4145 14.8299 29.199 15.172 28.1414 15.8185C27.0839 16.465 26.2252 17.3908 25.66 18.494Z" fill="#5981C1"/>
<path d="M38.6315 11.6446C36.5928 10.2034 34.1575 9.42956 31.6608 9.42956C29.1642 9.42956 26.7289 10.2034 24.6902 11.6446C25.2066 10.2098 26.1532 8.96938 27.4007 8.09252C28.6482 7.21566 30.136 6.74512 31.6608 6.74512C33.1857 6.74512 34.6734 7.21566 35.9209 8.09252C37.1685 8.96938 38.115 10.2098 38.6315 11.6446Z" fill="#5981C1"/>
<path d="M7.40845 34.3481H8.75543V35.6951H7.40845V34.3481Z" fill="#B2B2B2"/>
<path d="M7.40845 37.042H8.75543V38.389H7.40845V37.042Z" fill="#B2B2B2"/>
<path d="M8.75562 35.6948H10.1026V37.0418H8.75562V35.6948Z" fill="#B2B2B2"/>
<path d="M6.06152 35.6948H7.40851V37.0418H6.06152V35.6948Z" fill="#B2B2B2"/>
<path d="M30.3071 34.3481H31.6541V35.6951H30.3071V34.3481Z" fill="#B2B2B2"/>
<path d="M30.3071 37.042H31.6541V38.389H30.3071V37.042Z" fill="#B2B2B2"/>
<path d="M31.6543 35.6948H33.0013V37.0418H31.6543V35.6948Z" fill="#B2B2B2"/>
<path d="M28.9602 35.6948H30.3072V37.0418H28.9602V35.6948Z" fill="#B2B2B2"/>
<path d="M6.06152 30.9805H7.40851V32.3275H6.06152V30.9805Z" fill="#F28B44"/>
<path d="M3.36743 28.2866H4.71441V29.6336H3.36743V28.2866Z" fill="#3AA39E"/>
<path d="M6.06152 25.5928H7.40851V26.9398H6.06152V25.5928Z" fill="#F28B44"/>
<path d="M31.6541 25.5928H33.001V26.9398H31.6541V25.5928Z" fill="#F28B44"/>
<path d="M34.3481 28.2866H35.6951V29.6336H34.3481V28.2866Z" fill="#3AA39E"/>
<path d="M31.6541 30.9805H33.001V32.3275H31.6541V30.9805Z" fill="#F28B44"/>
</svg>
