<svg width="28" height="25" viewBox="0 0 28 25" fill="none" xmlns="http://www.w3.org/2000/svg">
<path d="M14 25C13.8066 24.9994 13.6189 24.9354 13.4662 24.8181C8.60038 21.0763 5.24859 17.8542 2.90321 14.6755C-0.0897668 10.6132 -0.772377 6.86278 0.872888 3.52809C2.04558 1.14618 5.41487 -0.802665 9.353 0.331994C11.2307 0.868782 12.8689 2.01994 14 3.59739C15.1311 2.01994 16.7693 0.868782 18.647 0.331994C22.5764 -0.785342 25.9544 1.14618 27.1271 3.52809C28.7724 6.86278 28.0898 10.6132 25.0968 14.6755C22.7514 17.8542 19.3996 21.0763 14.5338 24.8181C14.3811 24.9354 14.1934 24.9994 14 25ZM7.11264 1.74382C6.17559 1.70773 5.24629 1.92489 4.42451 2.372C3.60273 2.81911 2.91949 3.47928 2.44814 4.28165C1.09167 7.03601 1.70427 10.1022 4.32094 13.6447C7.10176 17.1947 10.358 20.3534 14 23.0338C17.6414 20.3561 20.8976 17.2003 23.6791 13.6534C26.3045 10.1022 26.9083 7.03601 25.5519 4.29031C24.6767 2.55801 22.0513 1.18082 19.1283 1.99501C18.1911 2.26914 17.3222 2.73445 16.5776 3.36099C15.8331 3.98753 15.2293 4.76142 14.8051 5.63284C14.7392 5.79171 14.627 5.92758 14.4829 6.02321C14.3388 6.11883 14.1691 6.16989 13.9956 6.16989C13.8221 6.16989 13.6525 6.11883 13.5084 6.02321C13.3642 5.92758 13.2521 5.79171 13.1861 5.63284C12.7652 4.75923 12.1624 3.98354 11.4174 3.35661C10.6723 2.72969 9.80182 2.26568 8.86292 1.99501C8.29406 1.83148 7.70501 1.74694 7.11264 1.74382Z" fill="#292D32"/>
</svg>
