<svg width="27" height="27" viewBox="0 0 27 27" fill="none" xmlns="http://www.w3.org/2000/svg">
<g clip-path="url(#clip0_1_746)">
<path d="M18.1546 13.4545H11.3001C10.9429 13.4545 10.6299 13.2156 10.5357 12.871C10.4415 12.5264 10.5895 12.1615 10.897 11.9797C13.8835 10.215 15.4348 8.15644 15.6394 5.68646C15.7107 4.82927 16.4742 4.14456 17.3409 4.1559C18.2253 4.17003 19.0538 4.52451 19.6743 5.15416C20.2953 5.78439 20.6375 6.61896 20.6378 7.50406C20.6378 7.50416 20.6378 7.50427 20.6378 7.50438V7.77063C20.6378 9.93274 19.9974 11.3113 18.8158 13.0989C18.669 13.321 18.4207 13.4545 18.1546 13.4545Z" fill="#FFC380"/>
<path d="M26.555 14.3528C26.555 12.9836 25.4411 11.8696 24.0719 11.8696H11.3001C11.1582 11.8696 11.0188 11.9077 10.8967 11.9799C10.0002 12.51 9.09497 12.9464 8.36761 13.2971C8.1139 13.4194 7.87428 13.535 7.65633 13.6439C7.38786 13.7782 7.21826 14.0526 7.21826 14.3528V24.4967C7.21826 24.7969 7.38786 25.0713 7.65633 25.2056C10.8585 26.8064 13.5203 27 16.6243 27C17.105 27 17.5966 26.9954 18.1021 26.9906C18.6612 26.9854 19.2392 26.9799 19.8452 26.9799H22.3506C23.7198 26.9799 24.8338 25.866 24.8338 24.4967C24.8338 24.0363 24.7079 23.6049 24.4886 23.2348C25.2021 22.7981 25.6791 22.0115 25.6791 21.1154C25.6791 20.655 25.5532 20.2235 25.3339 19.8535C26.0474 19.4168 26.5244 18.6301 26.5244 17.7341C26.5244 17.0901 26.278 16.5026 25.8745 16.0609C26.3139 15.5978 26.555 14.9939 26.555 14.3528Z" fill="#FFCF99"/>
<path d="M24.9066 7.44192H23.216C22.7783 7.44192 22.4235 7.08707 22.4235 6.64943C22.4235 6.21178 22.7783 5.85693 23.216 5.85693H24.9066C25.3443 5.85693 25.6991 6.21178 25.6991 6.64943C25.6991 7.08707 25.3443 7.44192 24.9066 7.44192Z" fill="#29CCB1"/>
<path d="M13.072 7.44192H11.3814C10.9437 7.44192 10.5889 7.08707 10.5889 6.64943C10.5889 6.21178 10.9437 5.85693 11.3814 5.85693H13.072C13.5097 5.85693 13.8645 6.21178 13.8645 6.64943C13.8645 7.08707 13.5098 7.44192 13.072 7.44192Z" fill="#29CCB1"/>
<path d="M15.6088 3.04936C15.3348 3.04936 15.0685 2.90724 14.9217 2.65301L14.0764 1.18884C13.8576 0.809838 13.9874 0.325104 14.3664 0.106309C14.7454 -0.112539 15.2302 0.0173458 15.449 0.396348L16.2943 1.86052C16.5132 2.23952 16.3833 2.72425 16.0043 2.94305C15.8795 3.01514 15.7432 3.04936 15.6088 3.04936Z" fill="#29CCB1"/>
<path d="M20.6792 3.04941C20.5447 3.04941 20.4084 3.01518 20.2837 2.9431C19.9047 2.72425 19.7748 2.23957 19.9936 1.86056L20.839 0.396395C21.0578 0.0173927 21.5425 -0.112598 21.9215 0.106356C22.3005 0.325203 22.4304 0.809885 22.2115 1.18889L21.3662 2.65306C21.2196 2.90729 20.9531 3.04941 20.6792 3.04941Z" fill="#29CCB1"/>
<path d="M5.41128 22.8159V26.9898H3.82629V22.8159C3.82629 22.3785 4.18135 22.0234 4.61879 22.0234C5.05622 22.0234 5.41128 22.3785 5.41128 22.8159Z" fill="#73C3FF"/>
<path d="M24.9066 7.44192H23.216C22.7783 7.44192 22.4235 7.08707 22.4235 6.64943C22.4235 6.21178 22.7783 5.85693 23.216 5.85693H24.9066C25.3443 5.85693 25.6991 6.21178 25.6991 6.64943C25.6991 7.08707 25.3443 7.44192 24.9066 7.44192Z" fill="#29CCB1"/>
<path d="M13.072 7.44192H11.3814C10.9437 7.44192 10.5889 7.08707 10.5889 6.64943C10.5889 6.21178 10.9437 5.85693 11.3814 5.85693H13.072C13.5097 5.85693 13.8645 6.21178 13.8645 6.64943C13.8645 7.08707 13.5098 7.44192 13.072 7.44192Z" fill="#29CCB1"/>
<path d="M15.6088 3.04936C15.3348 3.04936 15.0685 2.90724 14.9217 2.65301L14.0764 1.18884C13.8576 0.809838 13.9874 0.325104 14.3664 0.106309C14.7454 -0.112539 15.2302 0.0173458 15.449 0.396348L16.2943 1.86052C16.5132 2.23952 16.3833 2.72425 16.0043 2.94305C15.8795 3.01514 15.7432 3.04936 15.6088 3.04936Z" fill="#29CCB1"/>
<path d="M20.6792 3.04941C20.5447 3.04941 20.4084 3.01518 20.2837 2.9431C19.9047 2.72425 19.7748 2.23957 19.9936 1.86056L20.839 0.396395C21.0578 0.0173927 21.5425 -0.112598 21.9215 0.106356C22.3005 0.325203 22.4304 0.809885 22.2115 1.18889L21.3662 2.65306C21.2196 2.90729 20.9531 3.04941 20.6792 3.04941Z" fill="#29CCB1"/>
<path d="M5.41128 22.8159V26.9898H3.82629V22.8159C3.82629 22.3785 4.18135 22.0234 4.61879 22.0234C5.05622 22.0234 5.41128 22.3785 5.41128 22.8159Z" fill="#73C3FF"/>
<path d="M8.00004 11.8696H1.23744C0.800007 11.8696 0.444946 12.2247 0.444946 12.6621V26.1873C0.444946 26.6253 0.800007 26.9798 1.23744 26.9898H6.30938C7.28096 26.9798 8.12365 26.4193 8.53102 25.6046C8.69851 25.2712 8.79253 24.8945 8.79253 24.4967V12.6621C8.79253 12.2246 8.43747 11.8696 8.00004 11.8696Z" fill="#44A4EC"/>
<path d="M5.41128 22.7632V26.9899H3.82629V22.7632C3.82629 22.3258 4.18135 21.9707 4.61879 21.9707C5.05622 21.9707 5.41128 22.3258 5.41128 22.7632Z" fill="#73C3FF"/>
</g>
<defs>
<clipPath id="clip0_1_746">
<rect width="27" height="27" fill="white"/>
</clipPath>
</defs>
</svg>
