<svg width="24" height="15" viewBox="0 0 24 15" fill="none" xmlns="http://www.w3.org/2000/svg">
<path d="M8.75528 1.60352H15.2445V13.3892H8.75528V1.60352Z" fill="#FF4201"/>
<path d="M9.16743 7.49618C9.16743 5.1016 10.2798 2.97764 11.9897 1.60331C10.7331 0.603838 9.14688 0 7.41642 0C3.31669 0 0 3.35241 0 7.49618C0 11.6399 3.31669 14.9924 7.41632 14.9924C9.14679 14.9924 10.733 14.3885 11.9897 13.389C10.2798 12.0355 9.16743 9.89076 9.16743 7.49618Z" fill="#FF4201"/>
<path d="M23.9999 7.49618C23.9999 11.6399 20.6832 14.9924 16.5836 14.9924C14.8531 14.9924 13.2669 14.3885 12.0103 13.389C13.7407 12.0147 14.8326 9.89076 14.8326 7.49618C14.8326 5.1016 13.7201 2.97764 12.0103 1.60331C13.2668 0.603838 14.8531 0 16.5836 0C20.6832 0 24 3.37328 24 7.49618H23.9999Z" fill="#F79E1B"/>
</svg>
