<svg width="27" height="32" viewBox="0 0 27 32" fill="none" xmlns="http://www.w3.org/2000/svg">
<path d="M22.9887 2.36229C21.5135 0.708865 18.8467 0 15.4351 0H5.53382C5.19628 1.22898e-05 4.86981 0.118426 4.61311 0.333951C4.35642 0.549477 4.18633 0.847977 4.13343 1.17578L0.0106986 26.8868C-0.0712478 27.3938 0.328003 27.8529 0.850596 27.8529H6.96333L8.4985 18.2781L8.45086 18.5779C8.56023 17.9011 9.14889 17.4019 9.84596 17.4019H12.7507C18.4571 17.4019 22.9253 15.1228 24.2305 8.5298C24.2693 8.33481 24.3028 8.14502 24.3318 7.9596C24.1671 7.87382 24.1671 7.87382 24.3318 7.9596C24.7205 5.52277 24.3292 3.86404 22.9887 2.36229Z" fill="#27346A"/>
<path d="M10.8375 7.08177C11.0046 7.00353 11.1874 6.96298 11.3725 6.96309H19.1349C20.0541 6.96309 20.9115 7.02191 21.6949 7.1459C21.9142 7.18028 22.1323 7.22131 22.3489 7.26896C22.656 7.33559 22.9595 7.41713 23.2584 7.5133C23.6436 7.63979 24.0023 7.7871 24.3319 7.9596C24.7205 5.52184 24.3292 3.86404 22.9887 2.36229C21.5126 0.708865 18.8467 0 15.4351 0H5.53298C4.8358 0 4.24269 0.499089 4.13343 1.17578L0.0106991 26.8858C-0.0712473 27.3937 0.328003 27.8522 0.84975 27.8522H6.96333L10.1483 7.99167C10.1797 7.79646 10.2587 7.61165 10.3788 7.45315C10.4988 7.29465 10.6562 7.1672 10.8375 7.08177Z" fill="#38488C"/>
<path d="M24.2299 8.52967C22.9247 15.1217 18.4566 17.4018 12.7501 17.4018H9.84454C9.14747 17.4018 8.55871 17.901 8.4504 18.5778L6.54054 30.4829C6.46918 30.9266 6.81814 31.3287 7.27467 31.3287H12.4275C12.7227 31.3286 13.0082 31.225 13.2326 31.0364C13.457 30.8479 13.6056 30.5868 13.6518 30.3001L13.702 30.0419L14.6731 23.9896L14.7357 23.6551C14.7818 23.3684 14.9304 23.1073 15.1548 22.9188C15.3792 22.7302 15.6647 22.6266 15.9598 22.6265H16.731C21.7226 22.6265 25.6312 20.6324 26.7734 14.8653C27.2501 12.4552 27.0034 10.443 25.7422 9.02969C25.3597 8.6016 24.8847 8.24806 24.3313 7.95947C24.3013 8.14582 24.2688 8.33467 24.2299 8.52967Z" fill="#2790C3"/>
<path d="M22.9653 7.42447C22.7618 7.36604 22.5564 7.3143 22.3493 7.26935C22.1326 7.22249 21.9145 7.18173 21.6954 7.14713C20.911 7.02231 20.0543 6.96338 19.1343 6.96338H11.3728C11.1875 6.96297 11.0046 7.00387 10.8378 7.083C10.6563 7.16817 10.4988 7.29554 10.3787 7.45408C10.2586 7.61263 10.1796 7.79757 10.1485 7.9929L8.49882 18.2785L8.45117 18.5783C8.55969 17.9015 9.14835 17.4023 9.84553 17.4023H12.7511C18.4575 17.4023 22.9256 15.1232 24.2308 8.53019C24.2697 8.3352 24.3023 8.14625 24.3323 7.96C24.0017 7.78843 23.644 7.64018 23.2587 7.51452C23.1615 7.48283 23.0637 7.45281 22.9654 7.42447" fill="#293265"/>
</svg>
