<svg width="25" height="25" viewBox="0 0 25 25" fill="none" xmlns="http://www.w3.org/2000/svg">
<path d="M9.0332 14.9268C9.0332 16.2705 10.0645 17.3538 11.3457 17.3538H13.9603C15.0749 17.3538 15.9811 16.4059 15.9811 15.2393C15.9811 13.9684 15.429 13.5205 14.6061 13.2288L10.4082 11.7705C9.58529 11.4788 9.0332 11.0309 9.0332 9.76009C9.0332 8.59342 9.93945 7.64551 11.054 7.64551H13.6686C14.9499 7.64551 15.9811 8.72884 15.9811 10.0726" stroke="#292D32" stroke-width="1.5" stroke-linecap="round" stroke-linejoin="round"/>
<path d="M12.5 6.25V18.75" stroke="#292D32" stroke-width="1.5" stroke-linecap="round" stroke-linejoin="round"/>
<path d="M12.4997 22.9168C18.2526 22.9168 22.9163 18.2531 22.9163 12.5002C22.9163 6.7472 18.2526 2.0835 12.4997 2.0835C6.74671 2.0835 2.08301 6.7472 2.08301 12.5002C2.08301 18.2531 6.74671 22.9168 12.4997 22.9168Z" stroke="#292D32" stroke-width="1.5" stroke-linecap="round" stroke-linejoin="round"/>
</svg>
