<svg width="93" height="93" viewBox="0 0 93 93" fill="none" xmlns="http://www.w3.org/2000/svg">
<path d="M71.8905 40.8169H66.8714C66.5762 40.8169 66.2809 41.1121 66.1333 41.4074L64.0667 54.3978C64.0667 54.6931 64.2143 54.8407 64.5095 54.8407H67.1666C67.4619 54.8407 67.6095 54.6931 67.6095 54.3978L68.2 50.7074C68.2 50.4121 68.4952 50.1169 68.9381 50.1169H70.5619C73.9571 50.1169 75.8762 48.4931 76.319 45.2455C76.6143 43.9169 76.319 42.7359 75.7286 41.9978C74.8428 41.2598 73.5143 40.8169 71.8905 40.8169ZM72.4809 45.6883C72.1857 47.4598 70.8571 47.4598 69.5286 47.4598H68.6428L69.2333 44.0645C69.2333 43.9169 69.3809 43.7693 69.6762 43.7693H69.9714C70.8571 43.7693 71.7428 43.7693 72.1857 44.3598C72.4809 44.5074 72.4809 44.9502 72.4809 45.6883Z" fill="#139AD6"/>
<path d="M35.7238 40.8169H30.7048C30.4095 40.8169 30.1143 41.1121 29.9667 41.4074L27.9 54.3978C27.9 54.6931 28.0476 54.8407 28.3429 54.8407H30.7048C31 54.8407 31.2953 54.5455 31.4429 54.2502L32.0334 50.7074C32.0334 50.4121 32.3286 50.1169 32.7715 50.1169H34.3953C37.7905 50.1169 39.7095 48.4931 40.1524 45.2455C40.4476 43.9169 40.1524 42.7359 39.5619 41.9978C38.6762 41.2598 37.4953 40.8169 35.7238 40.8169ZM36.3143 45.6883C36.0191 47.4598 34.6905 47.4598 33.3619 47.4598H32.6238L33.2143 44.0645C33.2143 43.9169 33.3619 43.7693 33.6572 43.7693H33.9524C34.8381 43.7693 35.7238 43.7693 36.1667 44.3598C36.3143 44.5074 36.4619 44.9502 36.3143 45.6883Z" fill="#263B80"/>
<path d="M50.9286 45.5408H48.5667C48.419 45.5408 48.1238 45.6885 48.1238 45.8361L47.9762 46.5742L47.8286 46.2789C47.2381 45.5408 46.2048 45.2456 45.0238 45.2456C42.3667 45.2456 40.0048 47.3123 39.5619 50.117C39.2667 51.5932 39.7095 52.9218 40.4476 53.8075C41.1857 54.6932 42.219 54.9885 43.5476 54.9885C45.7619 54.9885 46.9429 53.6599 46.9429 53.6599L46.7952 54.398C46.7952 54.6932 46.9429 54.8408 47.2381 54.8408H49.4524C49.7476 54.8408 50.0429 54.5456 50.1905 54.2504L51.519 45.9837C51.3714 45.8361 51.0762 45.5408 50.9286 45.5408ZM47.5333 50.2647C47.2381 51.5932 46.2048 52.6266 44.7286 52.6266C43.9905 52.6266 43.4 52.3313 43.1048 52.0361C42.8095 51.5932 42.6619 51.0027 42.6619 50.2647C42.8095 48.9361 43.9905 47.9027 45.319 47.9027C46.0571 47.9027 46.5 48.198 46.9429 48.4932C47.3857 48.9361 47.5333 49.6742 47.5333 50.2647Z" fill="#263B80"/>
<path d="M86.9476 45.5404H84.5857C84.4381 45.5404 84.1428 45.688 84.1428 45.8356L83.9952 46.5737L83.8476 46.2785C83.2571 45.5404 82.2238 45.2451 81.0428 45.2451C78.3857 45.2451 76.0238 47.3118 75.5809 50.1165C75.2857 51.5927 75.7286 52.9213 76.4667 53.807C77.2047 54.6927 78.2381 54.988 79.5667 54.988C81.7809 54.988 82.9619 53.6594 82.9619 53.6594L82.8143 54.3975C82.8143 54.6927 82.9619 54.8404 83.2571 54.8404H85.4714C85.7667 54.8404 86.0619 54.5451 86.2095 54.2499L87.5381 45.9832C87.3905 45.8356 87.2428 45.5404 86.9476 45.5404ZM83.5524 50.2642C83.2571 51.5927 82.2238 52.6261 80.7476 52.6261C80.0095 52.6261 79.419 52.3308 79.1238 52.0356C78.8286 51.5927 78.6809 51.0023 78.6809 50.2642C78.8286 48.9356 80.0095 47.9023 81.3381 47.9023C82.0762 47.9023 82.519 48.1975 82.9619 48.4927C83.5524 48.9356 83.7 49.6737 83.5524 50.2642Z" fill="#139AD6"/>
<path d="M63.7715 45.5405H61.2619C60.9667 45.5405 60.8191 45.6881 60.6714 45.8358L57.4238 50.8548L55.9476 46.131C55.8 45.8358 55.6524 45.6881 55.2095 45.6881H52.8476C52.5524 45.6881 52.4048 45.9834 52.4048 46.2786L55.0619 54.1024L52.5524 57.6453C52.4048 57.9405 52.5524 58.3834 52.8476 58.3834H55.2095C55.5048 58.3834 55.6524 58.2358 55.8 58.0881L63.9191 46.4262C64.3619 45.9834 64.0667 45.5405 63.7715 45.5405Z" fill="#263B80"/>
<path d="M89.7524 41.2594L87.6857 54.5451C87.6857 54.8404 87.8333 54.988 88.1286 54.988H90.1952C90.4905 54.988 90.7857 54.6927 90.9333 54.3975L93 41.407C93 41.1118 92.8524 40.9642 92.5572 40.9642H90.1952C90.0476 40.8165 89.9 40.9642 89.7524 41.2594Z" fill="#139AD6"/>
<path d="M16.9762 36.3881C15.9429 35.2072 14.0238 34.6167 11.3667 34.6167H3.98571C3.54286 34.6167 3.1 35.0596 2.95238 35.5024L0 54.8405C0 55.2834 0.295238 55.5786 0.590476 55.5786H5.16667L6.34762 48.3453V48.6405C6.49524 48.1977 6.9381 47.7548 7.38095 47.7548H9.59524C13.8762 47.7548 17.1238 45.9834 18.1571 41.1119C18.1571 40.9643 18.1571 40.8167 18.1571 40.6691C18.0095 40.6691 18.0095 40.6691 18.1571 40.6691C18.3048 38.75 18.0095 37.5691 16.9762 36.3881Z" fill="#263B80"/>
<path d="M18.0095 40.6689C18.0095 40.8166 18.0095 40.9642 18.0095 41.1118C16.9762 46.1309 13.7286 47.7547 9.44763 47.7547H7.23334C6.79048 47.7547 6.34763 48.1975 6.20001 48.6404L4.72382 57.6451C4.72382 57.9404 4.87143 58.2356 5.31429 58.2356H9.15239C9.59524 58.2356 10.0381 57.9404 10.0381 57.4975V57.3499L10.7762 52.7737V52.4785C10.7762 52.0356 11.2191 51.7404 11.6619 51.7404H12.2524C15.9429 51.7404 18.8952 50.2642 19.6333 45.8356C19.9286 44.0642 19.781 42.4404 18.8952 41.407C18.7476 41.1118 18.4524 40.8166 18.0095 40.6689Z" fill="#139AD6"/>
<path d="M16.9762 40.2261C16.8285 40.2261 16.6809 40.0784 16.5333 40.0784C16.3857 40.0784 16.2381 40.0784 16.0905 39.9308C15.5 39.7832 14.9095 39.7832 14.1714 39.7832H8.41426C8.26664 39.7832 8.11902 39.7832 7.9714 39.9308C7.67617 40.0784 7.52855 40.3737 7.52855 40.6689L6.3476 48.3451V48.6403C6.49521 48.1975 6.93807 47.7546 7.38093 47.7546H9.59521C13.8762 47.7546 17.1238 45.9832 18.1571 41.1118C18.1571 40.9642 18.1571 40.8165 18.3047 40.6689C18.0095 40.5213 17.8619 40.3737 17.5666 40.3737C17.1238 40.2261 17.1238 40.2261 16.9762 40.2261Z" fill="#232C65"/>
</svg>
