<svg width="26" height="26" viewBox="0 0 26 26" fill="none" xmlns="http://www.w3.org/2000/svg">
<path d="M3.26074 12.1548V17.019C3.26074 21.8831 5.21074 23.8331 10.0749 23.8331H15.9141C20.7782 23.8331 22.7282 21.8831 22.7282 17.019V12.1548" stroke="#292D32" stroke-width="1.5" stroke-linecap="round" stroke-linejoin="round"/>
<path d="M12.9999 12.9998C14.9824 12.9998 16.4449 11.3857 16.2499 9.40317L15.5349 2.1665H10.4757L9.74987 9.40317C9.55487 11.3857 11.0174 12.9998 12.9999 12.9998Z" stroke="#292D32" stroke-width="1.5" stroke-linecap="round" stroke-linejoin="round"/>
<path d="M19.8354 12.9998C22.0237 12.9998 23.627 11.2232 23.4104 9.04567L23.107 6.0665C22.717 3.24984 21.6337 2.1665 18.7954 2.1665H15.4912L16.2495 9.76067C16.4337 11.5482 18.0479 12.9998 19.8354 12.9998Z" stroke="#292D32" stroke-width="1.5" stroke-linecap="round" stroke-linejoin="round"/>
<path d="M6.11024 12.9998C7.89774 12.9998 9.51191 11.5482 9.68524 9.76067L9.92357 7.3665L10.4436 2.1665H7.13941C4.30107 2.1665 3.21774 3.24984 2.82774 6.0665L2.53524 9.04567C2.31857 11.2232 3.92191 12.9998 6.11024 12.9998Z" stroke="#292D32" stroke-width="1.5" stroke-linecap="round" stroke-linejoin="round"/>
<path d="M13.0003 18.4165C11.1912 18.4165 10.292 19.3157 10.292 21.1248V23.8332H15.7087V21.1248C15.7087 19.3157 14.8095 18.4165 13.0003 18.4165Z" stroke="#292D32" stroke-width="1.5" stroke-linecap="round" stroke-linejoin="round"/>
</svg>
