<svg width="34" height="32" viewBox="0 0 34 32" fill="none" xmlns="http://www.w3.org/2000/svg">
<path d="M26.1429 11.2532C26.1429 -2.41772 7.85714 -2.41772 7.85714 11.2532V13.5316H5.37638C4.488 13.5316 4.12229 14.6694 4.8461 15.1843L7.85714 17.3291C7.34971 19.1018 5.26667 22.9494 1 24.1646C1.50743 24.924 2.98095 26.443 4.80952 26.443L6.33333 28.7215L10.1429 27.962C11.4122 28.9752 14.5619 31 17 31C19.4381 31 22.5878 28.9752 23.8571 27.962L27.6667 28.7215L29.1905 26.443C31.019 26.443 32.4926 24.924 33 24.1646C28.7333 22.9494 26.6503 19.1018 26.1429 17.3291L29.1539 15.1843C29.8777 14.6694 29.512 13.5316 28.6236 13.5316H26.1429V11.2532Z" stroke="#DB9080" stroke-width="1.5" stroke-linecap="round" stroke-linejoin="round"/>
</svg>
