<svg width="31" height="31" viewBox="0 0 31 31" fill="none" xmlns="http://www.w3.org/2000/svg">
<path d="M11.3667 19.9533L12.9413 11.0962H15.4016L13.8762 19.9533H11.3667Z" fill="#3C58BF"/>
<path d="M11.3667 19.9533L13.3841 11.0962H15.4016L13.8762 19.9533H11.3667Z" fill="#293688"/>
<path d="M22.7825 11.1944C22.2905 10.9976 21.5032 10.8008 20.519 10.8008C18.0587 10.8008 16.2873 12.0309 16.2873 13.8024C16.2873 15.1309 17.5175 15.8198 18.5016 16.2627C19.4857 16.7055 19.781 17.0008 19.781 17.3944C19.781 17.9849 18.9937 18.2801 18.3048 18.2801C17.3206 18.2801 16.7794 18.1325 15.9429 17.7881L15.5984 17.6405L15.254 19.6579C15.8444 19.904 16.927 20.15 18.0587 20.15C20.6667 20.15 22.3889 18.9198 22.3889 17.05C22.3889 16.0167 21.7492 15.2294 20.273 14.5897C19.3873 14.1468 18.846 13.9008 18.846 13.4579C18.846 13.0643 19.2889 12.6706 20.273 12.6706C21.1095 12.6706 21.7 12.8182 22.1429 13.0151L22.3889 13.1135L22.7825 11.1944Z" fill="#3C58BF"/>
<path d="M22.7825 11.1944C22.2905 10.9976 21.5032 10.8008 20.519 10.8008C18.0587 10.8008 16.7302 12.0309 16.7302 13.8024C16.7302 15.1309 17.5175 15.8198 18.5016 16.2627C19.4857 16.7055 19.781 17.0008 19.781 17.3944C19.781 17.9849 18.9937 18.2801 18.3048 18.2801C17.3206 18.2801 16.7794 18.1325 15.9429 17.7881L15.5984 17.6405L15.254 19.6579C15.8444 19.904 16.927 20.15 18.0587 20.15C20.6667 20.15 22.3889 18.9198 22.3889 17.05C22.3889 16.0167 21.7492 15.2294 20.273 14.5897C19.3873 14.1468 18.846 13.9008 18.846 13.4579C18.846 13.0643 19.2889 12.6706 20.273 12.6706C21.1095 12.6706 21.7 12.8182 22.1429 13.0151L22.3889 13.1135L22.7825 11.1944Z" fill="#293688"/>
<path d="M27.0143 11.0962C26.4238 11.0962 25.9809 11.1454 25.7349 11.7359L22.0444 19.9533H24.7016L25.1936 18.4771H28.3428L28.6381 19.9533H31L28.9333 11.0962H27.0143ZM25.8825 17.001C26.0301 16.5581 26.8667 14.393 26.8667 14.393C26.8667 14.393 27.0635 13.8517 27.2111 13.5073L27.3587 14.3438C27.3587 14.3438 27.8508 16.5581 27.9492 17.0502H25.8825V17.001Z" fill="#3C58BF"/>
<path d="M27.6048 11.0962C27.0143 11.0962 26.5714 11.1454 26.3254 11.7359L22.0444 19.9533H24.7016L25.1936 18.4771H28.3428L28.6381 19.9533H31L28.9333 11.0962H27.6048ZM25.8825 17.001C26.0794 16.5089 26.8667 14.393 26.8667 14.393C26.8667 14.393 27.0635 13.8517 27.2111 13.5073L27.3587 14.3438C27.3587 14.3438 27.8508 16.5581 27.9492 17.0502H25.8825V17.001Z" fill="#293688"/>
<path d="M6.83968 17.2958L6.59364 16.0164C6.15079 14.5403 4.7238 12.9164 3.1492 12.1291L5.36349 20.0022H8.02063L12.0063 11.145H9.3492L6.83968 17.2958Z" fill="#3C58BF"/>
<path d="M6.83968 17.2958L6.59364 16.0164C6.15079 14.5403 4.7238 12.9164 3.1492 12.1291L5.36349 20.0022H8.02063L12.0063 11.145H9.84126L6.83968 17.2958Z" fill="#293688"/>
<path d="M0 11.0962L0.442857 11.1946C3.59206 11.9327 5.75714 13.8025 6.59365 16.0168L5.70794 11.8343C5.56032 11.2438 5.11746 11.0962 4.57619 11.0962H0Z" fill="#FFBC00"/>
<path d="M0 11.0962C3.14921 11.8343 5.75714 13.7533 6.59365 15.9676L5.75714 12.474C5.60952 11.8835 5.11746 11.539 4.57619 11.539L0 11.0962Z" fill="#F7981D"/>
<path d="M0 11.0962C3.14921 11.8343 5.75714 13.7533 6.59365 15.9676L6.00317 14.0486C5.85556 13.4581 5.65873 12.8676 4.96984 12.6216L0 11.0962Z" fill="#ED7C00"/>
<path d="M9.30001 17.0007L7.627 15.3277L6.83969 17.1975L6.64287 15.9674C6.20001 14.4912 4.77303 12.8674 3.19843 12.0801L5.41271 19.9531H8.06985L9.30001 17.0007Z" fill="#051244"/>
<path d="M13.8762 19.9532L11.7603 17.7881L11.3667 19.9532H13.8762Z" fill="#051244"/>
<path d="M19.5349 16.9023C19.7317 17.0992 19.8302 17.2468 19.781 17.4436C19.781 18.0341 18.9937 18.3293 18.3048 18.3293C17.3206 18.3293 16.7794 18.1817 15.9429 17.8373L15.5984 17.6896L15.254 19.7071C15.8444 19.9531 16.927 20.1992 18.0587 20.1992C19.6333 20.1992 20.9127 19.7563 21.6508 18.969L19.5349 16.9023Z" fill="#051244"/>
<path d="M22.3889 19.9529H24.7016L25.1937 18.4767H28.3429L28.6381 19.9529H31L30.1635 16.3608L27.2111 13.5068L27.3588 14.2941C27.3588 14.2941 27.8508 16.5084 27.9492 17.0005H25.8826C26.0794 16.5084 26.8667 14.3925 26.8667 14.3925C26.8667 14.3925 27.0635 13.8513 27.2111 13.5068" fill="#051244"/>
</svg>
